# xmcd CD database file
# Generated: Die Apr 8 22:16:04 2003 by KSCD
# 
# Track frame offsets:
#       150
#       5167
#       24930
#       47490
#       67890
#       83550
#       99710
#       121329
#       141582
#       151245
#       173352
#       192700
#       210027
#       215882
#       233877
#       254622
#       275277
#       278270
#
# Disc length: 3997 seconds
#
# Revision: 4
# Processed by: cddbd v1.4PL0 Copyright (c) Steve Scherf et al.
# Submitted via: Kscd 1.3.3
#
DISCID=f30f9b12
DTITLE=Missy Elliot - Da Real World
DYEAR=1999
DGENRE=Rap
TTITLE0=Mysterious (Intro)
TTITLE1=Beat Biters
TTITLE2=Busa Rhyme (feat. Eminem)
TTITLE3=All N My Grill (feat. Big Boi Of Outkast and Nicole)
TTITLE4=Dangerous Mouth (feat. Redman)
TTITLE5=Hot Boyz
TTITLE6=You Don't Know (feat. Lil' Mo)
TTITLE7=Mr. D.J. (feat. Lady Saw)
TTITLE8=Checkin' For You - Interlude (feat. Lil' Kim)
TTITLE9=Stickin' Chickens (feat. Aaliyah and Da Brat)
TTITLE10=Smooth Chick
TTITLE11=We Did It
TTITLE12=Throw Your Hands Up - Interlude (feat. Lil' Kim)
TTITLE13=She's A Bitch
TTITLE14=U Can't Resist (feat. Juvenile and B. G.)
TTITLE15=Crazy Feelings (feat. Beyonce Of Destiny's Child)
TTITLE16=Religious Blessings (Outro)
TTITLE17=All N My Grill (feat. MC Solaar)
EXTD=
EXTT0=
EXTT1=
EXTT2=
EXTT3=
EXTT4=
EXTT5=
EXTT6=
EXTT7=
EXTT8=
EXTT9=
EXTT10=
EXTT11=
EXTT12=
EXTT13=
EXTT14=
EXTT15=
EXTT16=
EXTT17=
PLAYORDER=
